<svg xmlns="http://www.w3.org/2000/svg" viewBox="0 0 32 32">
  <rect width="32" height="32" fill="#b8932a"/>
  <g fill="#ffffff">
    <path transform="translate(3.840 20.479) scale(0.013953 -0.013953)" d="M203.3741455078125 543V85Q203.3741455078125 59.53741455078125 208.06170654296875 46.806121826171875Q212.749267578125 34.0748291015625 226.8398270280394 29.7998046875Q240.93038647795376 25.5247802734375 268.349853515625 25.5247802734375H328.2021484375Q399.3265380859375 25.5247802734375 448.350830078125 65.599609375Q497.3751220703125 105.6744384765625 513.349853515625 172.09912109375Q514.0748291015625 175.09912109375 519.2123413085938 174.23663330078125Q524.349853515625 173.3741455078125 524.349853515625 170.3741455078125Q521.349853515625 139.29931640625 518.349853515625 95.67503709059496Q515.349853515625 52.0507577749399 515.349853515625 15Q515.349853515625 0 500.07512592516446 0H31.650146484375Q29.650146484375 0 29.650146484375 6.0Q29.650146484375 12 31.650146484375 12Q64.3879641415028 12 80.75687297006671 17.0Q97.12578179863061 22 102.72567166103406 37.0Q108.3255615234375 52 108.3255615234375 81V544Q108.3255615234375 573 102.72567166103406 587.5Q97.12578179863061 602 80.75687297006671 607.5Q64.3879641415028 613 31.650146484375 613Q29.650146484375 613 29.650146484375 619.0Q29.650146484375 625 31.650146484375 625Q55.650146484375 625 87.887654296875 623.5Q120.125162109375 622 155.094662109375 622Q192.249755859375 622 223.57545657274198 623.5Q254.901157286109 625 279.3245849609375 625Q282.049560546875 625 282.049560546875 619.0Q282.049560546875 613 279.3245849609375 613Q246.8963074416257 613 230.6821686819698 607.5Q214.46802992231392 602 208.9210877150632 587.0Q203.3741455078125 572 203.3741455078125 543Z"/>
    <path transform="translate(11.772 20.479) scale(0.013953 -0.013953)" d="M164.09912109375 518.49951171875Q164.09912109375 479.3994140625 183.8741455078125 450.6243896484375Q203.649169921875 421.849365234375 235.4241943359375 399.1243896484375Q267.19921875 376.3994140625 302.4742431640625 353.949462890625Q340.19921875 330.7745361328125 374.56170654296875 305.099609375Q408.9241943359375 279.4246826171875 431.4241943359375 245.4747314453125Q453.9241943359375 211.5247802734375 453.9241943359375 163.5247802734375Q453.9241943359375 112.449951171875 427.0743408203125 72.86248779296875Q400.2244873046875 33.2750244140625 352.68707275390625 10.63751220703125Q305.149658203125 -12 241.49951171875 -12Q213.69970703125 -12 184.2249755859375 -6.8250732421875Q154.750244140625 -1.650146484375 129.350341796875 6.93731689453125Q103.950439453125 15.5247802734375 88.10009765625 26.349853515625Q83.8250732421875 29.349853515625 81.23760986328125 33.1248779296875Q78.650146484375 36.89990234375 78.3751220703125 45.349853515625L72.0748291015625 196.3741455078125Q71.0748291015625 201.3741455078125 76.5748291015625 201.8741455078125Q82.0748291015625 202.3741455078125 83.0748291015625 198.3741455078125Q95.049560546875 167.649169921875 111.3994140625 134.38677978515625Q127.749267578125 101.1243896484375 149.69921875 73.2244873046875Q171.649169921875 45.3245849609375 200.33673095703125 27.649658203125Q229.0242919921875 9.9747314453125 266.3994140625 9.9747314453125Q291.599609375 9.9747314453125 314.7998046875 18.93731689453125Q338 27.89990234375 352.8751220703125 50.2750244140625Q367.750244140625 72.650146484375 367.750244140625 111.850341796875Q367.750244140625 159.400390625 346.61273193359375 192.6253662109375Q325.4752197265625 225.850341796875 292.4752197265625 250.80029296875Q259.4752197265625 275.750244140625 223.2001953125 298.2001953125Q188.2001953125 320.650146484375 155.9251708984375 344.73760986328125Q123.650146484375 368.8250732421875 103.51263427734375 400.3250732421875Q83.3751220703125 431.8250732421875 83.3751220703125 476.650146484375Q83.3751220703125 531.550048828125 113.36248779296875 566.7750244140625Q143.349853515625 602 189.9246826171875 619.0Q236.49951171875 636 285.1243896484375 636Q318.3741455078125 636 352.31146240234375 629.7750244140625Q386.248779296875 623.550048828125 409.9990234375 613.449951171875Q419.448974609375 609.7249755859375 422.2239990234375 604.8624877929688Q424.9990234375 600 424.9990234375 594.2750244140625L427.4742431640625 458.551025390625Q427.4742431640625 455.2760009765625 422.69921875 454.18853759765625Q417.9241943359375 453.10107421875 416.19921875 456.3760986328125Q411.29931640625 471.1263427734375 400.98687744140625 497.5262451171875Q390.6744384765625 523.9261474609375 373.08697509765625 551.1759033203125Q355.49951171875 578.4256591796875 328.18707275390625 597.450439453125Q300.8746337890625 616.4752197265625 261.9747314453125 616.4752197265625Q232.0242919921875 616.4752197265625 210.149169921875 604.2750244140625Q188.2740478515625 592.0748291015625 176.18658447265625 570.5121459960938Q164.09912109375 548.949462890625 164.09912109375 518.49951171875Z"/>
    <path transform="translate(19.230 20.479) scale(0.013953 -0.013953)" d="M210.448974609375 603.650146484375Q148.89892578125 603.650146484375 110.249267578125 566.0379028320312Q71.599609375 528.4256591796875 50.449951171875 453.6005859375Q49.7249755859375 450.8756103515625 44.449951171875 451.23809814453125Q39.1749267578125 451.6005859375 39.1749267578125 454.3255615234375Q41.1749267578125 467.7755126953125 43.31243896484375 492.58795166015625Q45.449951171875 517.400390625 47.81243896484375 546.4378051757812Q50.1749267578125 575.4752197265625 51.6749267578125 602.5126342773438Q53.1749267578125 629.550048828125 53.1749267578125 647Q53.1749267578125 652 58.81243896484375 652.0Q64.449951171875 652 64.449951171875 647Q64.449951171875 637 74.6749267578125 632.5Q84.89990234375 628 98.1248779296875 626.5Q111.349853515625 625 120.349853515625 625Q206.349853515625 622 321.349853515625 622Q391.6248779296875 622 433.48736572265625 623.5Q475.349853515625 625 514.349853515625 625Q549.5247802734375 625 568.0247802734375 629.5Q586.5247802734375 634 591.5247802734375 650Q592.5247802734375 654 597.8872680664062 654.0Q603.249755859375 654 603.249755859375 650Q601.5247802734375 634.2750244140625 599.8872680664062 606.7376098632812Q598.249755859375 579.2001953125 596.8872680664062 548.80029296875Q595.5247802734375 518.400390625 594.5247802734375 492.7254638671875Q593.5247802734375 467.050537109375 593.5247802734375 454.3255615234375Q593.5247802734375 451.6005859375 588.249755859375 451.6005859375Q582.9747314453125 451.6005859375 582.249755859375 454.3255615234375Q571.3751220703125 532.7755126953125 534.1380004882812 568.2128295898438Q496.90087890625 603.650146484375 435.150634765625 603.650146484375Q407.7249755859375 603.650146484375 393.649658203125 598.7001953125Q379.5743408203125 593.750244140625 374.9742431640625 580.6127319335938Q370.3741455078125 567.4752197265625 370.3741455078125 542V81Q370.3741455078125 52 376.649169921875 37.0Q382.9241943359375 22 401.5242919921875 17.0Q420.1243896484375 12 458.3245849609375 12Q461.049560546875 12 461.049560546875 6.0Q461.049560546875 0 458.3245849609375 0Q430.8746337890625 0 396.56219482421875 1.0Q362.249755859375 2 321.349853515625 2Q282.449951171875 2 248.13751220703125 1.0Q213.8250732421875 0 185.3751220703125 0Q182.650146484375 0 182.650146484375 6.0Q182.650146484375 12 185.3751220703125 12Q222.5753173828125 12 241.6754150390625 17.0Q260.7755126953125 22 267.550537109375 37.0Q274.3255615234375 52 274.3255615234375 81V544Q274.3255615234375 568.750244140625 269.58795166015625 581.5252685546875Q264.850341796875 594.30029296875 251.0 598.9752197265625Q237.149658203125 603.650146484375 210.448974609375 603.650146484375Z"/>
  </g>
</svg>